<?xml version="1.0" encoding="UTF-8"?><svg id="Layer_2" xmlns="http://www.w3.org/2000/svg" viewBox="0 0 290.86 26.67"><defs><style>.cls-1{fill:#c0df17;}</style></defs><g id="Layer_1-2"><path class="cls-1" d="m190.06,6.98c-.08-1.13-.16-2.41-1.04-3.24-.07-.07-.15-.13-.23-.19l-.08-.06c-.2-.16-.35-.36-.51-.57-.13-.17-.27-.35-.44-.52-.53-.52-1.06-.88-1.59-1.09-.6-.23-1.24-.26-1.84-.26h-.29c-1.16.01-1.99.23-2.98.76l-.03.02c-.13.07-.28.15-.41.28-.22.22-.49.4-.83.55-1.66.76-2.1,2.32-2.53,3.82-.12.43-.25.87-.4,1.28-.04.11-.09.22-.13.33-.11.28-.23.56-.3.88-.1.48-.33.82-.7,1.03-.97.56-1.39,1.59-1.77,2.5l-.09.22c-.16.37-.41.74-.65,1.1-.11.16-.21.32-.31.47-.29.47-.62,1.01-.87,1.59-.75,1.75-.84,3.6-.94,5.39-.04.75-.08,1.53-.16,2.28-.05.41.06.76.18,1.07.34.94,1.33,1.95,2.5,1.95.45,0,.86-.15,1.23-.44.43-.34.75-.8,1.05-1.25.11-.16.21-.31.32-.45l.14-.18c.29-.38.59-.78.75-1.28.12-.37.22-.75.29-1.14.03-.17.05-.35.07-.52.03-.27.06-.53.14-.76.15-.42.12-.84.09-1.24-.01-.14-.02-.28-.02-.42,0-.5,0-1.09.13-1.65l.03-.14c.17-.76.36-1.54.38-2.34,0-.12,0-.23,0-.33,0-.24,0-.44.06-.65l.02-.05c.12-.38.25-.82.11-1.27-.07-.22-.17-.4-.28-.58-.11-.19-.21-.38-.25-.57-.02-.1-.03-.19-.04-.29-.03-.25-.07-.54-.22-.82q-.12-.23-.03-.39c.04-.08.1-.17.15-.28.09-.2.07-.39.05-.54,0-.06-.01-.11,0-.17.01-.16.07-.32.13-.52.11-.34.2-.7.29-1.05.17-.67.35-1.37.67-1.95.21-.38.49-.74.85-1.07.38-.36.84-.75,1.33-.94.45-.18,1.06-.28,1.89-.33.08,0,.15,0,.23,0,.6,0,1.11.13,1.5.38.48.31.81.84,1.04,1.26.04.08.09.16.14.24.21.36.41.71.41,1.07,0,.46.04.93.08,1.37.04.41.08.84.08,1.26,0,.36,0,.73-.08,1.08-.07.34-.22.66-.41,1.04-.71,1.39-1.52,2.31-2.54,2.87-.3.17-.81.51-.91.96-.06.25.03.5.1.7.02.07.05.14.06.21l.03.12c.04.2.09.4.15.61.1.33.36,1.2,1.09,1.22.06,0,.12,0,.18,0,1.15,0,2.28-.4,3.18-1.13.74-.6,1.33-1.37,1.82-2.05.45-.61.86-1.22,1.04-1.94.11-.47.12-.95.12-1.42,0-.19,0-.37.01-.55.03-.68-.01-1.4-.14-2.16-.06-.34-.08-.71-.11-1.11Z"/><path class="cls-1" d="m231.94,21.37c-.17-.15-.34-.3-.51-.44-.36-.3-.7-.59-1.01-.93-.36-.39-.81-.68-1.24-.96-.13-.08-.25-.16-.38-.25-.31-.21-.5-.51-.71-.83-.12-.19-.24-.38-.39-.56-.16-.2-.35-.34-.54-.47-.08-.06-.16-.12-.24-.18-.35-.29-.61-.68-.88-1.09-.09-.13-.17-.26-.26-.38-.09-.13-.2-.25-.3-.36-.1-.12-.2-.23-.27-.34-.09-.13-.08-.29-.07-.54,0-.07,0-.13,0-.2,0-.16.04-.31.12-.47.1-.19.16-.37.18-.54.03-.17.09-.35.19-.55l.26-.54c.21-.43.42-.86.62-1.29.11-.23.24-.44.4-.67.48-.67.83-1.4,1.03-2.18.04-.14.08-.27.14-.4.58-1.28-.38-2.94-1.38-3.97-.4-.42-.86-.77-1.35-1.04-.3-.17-.62-.26-.92-.36-.2-.06-.38-.12-.56-.19-.36-.15-.81-.3-1.34-.3-.08,0-.17,0-.26.01-.57.05-1.12.22-1.64.39-.65.21-1.23.4-1.76.74-.55.35-.82.78-1.11,1.24l-.13.21c-.31.48-.65,1.02-.73,1.67-.03.23-.02.45-.01.67,0,.28.02.54-.05.78-.02.07-.04.14-.06.21-.08.26-.17.53-.12.88.03.18.07.34.11.5.04.16.08.31.1.46.06.49.06.98.02,1.46-.05.53-.22.99-.4,1.49-.09.25-.19.52-.27.8-.07.23-.1.47-.14.69-.04.28-.08.54-.18.78-.42,1.04-.43,2.19-.43,3.31,0,.22,0,.43,0,.64,0,.28,0,.56.02.83.01.31.02.6.01.89-.01.4-.15.78-.3,1.18-.03.09-.07.18-.1.27-.21.58-.08,1.15.03,1.65.03.13.06.26.08.4.05.27.06.54.07.83.02.38.03.78.13,1.17.2.8,1.01.98,1.27,1.03.14.03.32.07.51.07.05,0,.1,0,.15,0,.43-.06.65-.36.79-.62.57-1.04.92-1.92,1.13-2.85.24-1.08.34-2.16.4-2.98l.02-.25c.03-.5.07-.97.16-1.45.11-.57.23-1.17.26-1.79.05-.89-.01-1.79-.08-2.65-.06-.66-.01-1.35.03-2.02.02-.36.05-.74.06-1.11.01-.51,0-1.02,0-1.52-.01-.63-.03-1.28.01-1.91,0-.14.03-.29.06-.44.04-.26.08-.53.06-.81,0-.13-.03-.27-.04-.41-.05-.41-.1-.83.02-1.17.12-.34.39-.66.77-.89.58-.36,1.3-.57,1.94-.57h.07c.74.02,1.48.28,2.07.75.1.08.2.15.31.23.31.23.6.44.82.71.14.16.18.37.23.62.02.12.05.24.08.35.05.17.13.29.21.41.05.08.11.16.12.22.04.14-.03.38-.09.57l-.02.08c-.35,1.24-.99,2.32-1.66,3.47-.11.19-.47.81-.54.93-.24.4-.48.81-.67,1.25-.12.27-.17.53-.21.79-.04.24-.09.47-.18.67-.05.11-.11.21-.17.32-.18.32-.38.68-.4,1.11-.01.39.13.74.25,1.03.08.19.15.38.22.58.16.45.33.92.59,1.32.27.43.62.84.96,1.23l.14.16c.7.82,1.51,1.63,2.57,2.54.41.36.78.66,1.14.92.92.68,1.9,1.35,2.93,1.47.04,0,.08,0,.12,0,.6,0,1.1-.52,1.37-.79.05-.06.17-.17.2-.34.04-.21-.05-.38-.1-.48-.38-.7-.78-1.37-1.35-1.88Z"/><path class="cls-1" d="m273.86,5.38c-.23,0-.39-.05-.62-.12l-.16-.05c-.22-.07-.44-.09-.66-.11-.09,0-.18-.02-.27-.03-.89-.12-1.72-.6-2.52-1.07l-.11-.07c-.59-.34-1.17-.7-1.74-1.06-.32-.2-.64-.4-.97-.6-.33-.2-.71-.43-1.18-.56-.22-.06-.45-.1-.66-.14-.27-.05-.52-.1-.77-.17-.14-.04-.27-.09-.41-.14-.22-.08-.44-.16-.68-.22-.2-.05-.4-.07-.6-.08-.18-.02-.34-.03-.5-.07-.06-.01-.12-.03-.17-.04-.17-.04-.36-.09-.56-.09-.18,0-.35.04-.5.12-.18.09-.3.23-.41.34-.07.08-.14.15-.21.19-.16.11-.41.14-.63.17-.22.03-.46.04-.78.04-.13,0-.26,0-.39,0-.13,0-.27,0-.41,0-.57,0-1.03.11-1.49.37-.24.13-.44.23-.64.3-.08.03-.17.05-.27.07-.13.03-.27.06-.41.11-.22.09-.37.26-.47.39l-.09.11c-.29.32-.61.69-.75,1.16-.07.24-.05.47-.03.68,0,.06.01.13.01.19,0,.09-.02.19-.05.3-.06.25-.13.56.07.89.12.21.31.34.46.45.3.22.61.44.97.6.29.13.58.19.91.19.45,0,.89-.12,1.26-.23.34-.1.73-.15,1.18-.15.33,0,.66.03.94.05.39.04.79.05,1.22.05.28,0,.56,0,.84-.02.09,0,.18,0,.27,0h.37c.17,0,.36,0,.57-.03.34-.04.6-.17.86-.29.04-.02.07-.04.11-.05,0,.03-.02.07-.03.1-.26.77-.59,1.78-.81,2.88-.09.43-.16.85-.24,1.28-.1.54-.2,1.11-.32,1.65-.1.46-.14.92-.17,1.37-.02.28-.04.57-.08.85-.06.45-.09.91-.11,1.36-.02.42-.05.86-.1,1.28-.05.41-.05.83-.05,1.23,0,.36,0,.7-.03,1.04l-.05.43c-.07.61-.14,1.24-.15,1.88-.01.77-.04,1.59-.26,2.39-.04.14-.08.31-.07.49.03.52.55.88,1.27.88.19,0,.55-.03.81-.22.24-.17.4-.42.52-.61.02-.04.05-.08.07-.12.15-.23.32-.5.29-.88-.01-.15-.04-.28-.07-.41-.01-.06-.03-.12-.04-.19-.08-.44-.04-.89,0-1.38.04-.39.08-.8.04-1.21l-.03-.37c-.06-.68-.11-1.32,0-1.96.11-.64.11-1.27.11-1.87,0-.27,0-.54,0-.81.01-.4.07-.8.14-1.22.04-.24.07-.48.1-.72.05-.41.09-.82.14-1.23.04-.41.08-.82.12-1.22.06-.61.13-1.3.21-1.97.02-.19.06-.38.09-.57.08-.45.17-.91.14-1.38,0-.15-.04-.28-.07-.41-.02-.11-.05-.21-.05-.31.14.04.29.06.44.06.22,0,.42-.03.62-.07.1-.02.2-.03.3-.04,1.43-.18,2.6-.26,3.68-.26.2,0,.4,0,.61,0,.32,0,.65.04.96.07.4.04.82.07,1.24.07h.11s.2,0,.2,0c.31,0,.66-.03.87-.25l.03-.03c.06-.06.13-.13.18-.21.05-.08.08-.16.09-.21v-.03c.06-.12.02-.25-.07-.34-.19-.19-.4-.19-.53-.19Z"/><path class="cls-1" d="m290.81.5c-.06-.22-.25-.37-.49-.39-.04,0-.09,0-.13,0-.03,0-.05,0-.08,0-.55.05-1.1.15-1.63.31-1.74.51-3.08,1.93-3.6,3.81-.27.98-.36,1.99-.46,2.96-.04.38-.07.77-.12,1.15v.04c-.21,1.67-.41,3.35-.61,5.02-.03.27-.06.53-.08.8-.13,1.31-.26,2.56-.97,3.64-.03.04-.06.08-.08.12-.73,1.04-2.14,2.25-3.72,2.25-.41,0-.81-.09-1.18-.26l-.1-.05c-.21-.1-.46-.22-.74-.22-.05,0-.1,0-.15.01-1.41.22-1.88,2.65-1.82,3.53.18,2.66,3.49,3.21,4.9,3.33.12.01.25.02.37.02,1.81,0,3.3-1.06,4.23-1.95.96-.92,1.68-2.21,2.21-3.94.34-1.14.54-2.33.57-3.53.01-.45-.02-.9-.05-1.33-.03-.45-.06-.87-.05-1.29.03-.88-.03-1.89-.21-3.09-.06-.4-.12-.8-.18-1.19-.18-1.16-.37-2.36-.42-3.55-.05-1.21-.05-2.48.58-3.48.74-1.16,2.09-1.54,3.31-1.75h.07c.08-.02.16-.04.24-.06.28-.08.43-.28.44-.56,0-.13-.01-.25-.05-.37Z"/><path class="cls-1" d="m161.84,1.04c-.63-.51-1.42-.57-2.04-.57-.23,0-.46.01-.69.02-.22.01-.5.03-.76.14-.07.03-.13.07-.19.1-.06.04-.12.07-.17.09-.07.02-.16.03-.26.04-.05,0-.1,0-.15.01-1.33.16-2.66,1.57-2.8,2.96-.02.19-.07.36-.13.54-.04.14-.08.27-.11.42-.11.51.05.97.19,1.38.07.2.14.4.17.59.05.27.14.53.28.8.11.22.22.44.34.66.38.74.77,1.51,1.27,2.22.23.33.5.62.76.91.43.47.84.92,1.08,1.51.34.84.32,1.84.3,2.72,0,.2,0,.41-.07.58-.28.86-1.19,1.46-2.07,2.05-.45.3-.87.58-1.21.89l-.09.09c-.21.19-.41.38-.64.48-.17.08-.36.12-.57.16-.15.03-.31.06-.47.11-.3.09-.58.12-.89.15-.23.02-.47.04-.72.09-.67.14-1.38.61-1.34,1.34.01.27,0,.54,0,.81,0,.5,0,1.01.07,1.53.1.65.35,1.22.71,1.62.51.58,1.11.66,1.68.73.19.02.39.05.58.1.12.03.23.07.36.11.23.08.47.17.75.17.13,0,.26-.02.39-.06.13-.04.25-.1.37-.15.1-.05.19-.09.27-.12.09-.03.17-.04.26-.06.11-.02.23-.04.35-.08.26-.08.47-.23.66-.35.11-.07.23-.15.36-.22.28-.17.57-.34.8-.56.13-.12.23-.27.31-.4.09-.14.18-.26.29-.35.12-.09.24-.17.36-.26.36-.25.73-.51,1.04-.85l.03-.03c.06-.07.12-.13.19-.19.25-.21.41-.48.48-.82.05-.22.12-.45.19-.66.04-.13.17-.42.29-.67.23-.51.29-.65.3-.76,0-.07,0-.13,0-.22v-.36c0-.32,0-.64-.02-.95,0-.12,0-.24,0-.35,0-.57,0-1.06-.26-1.68-.08-.19-.11-.4-.15-.63-.01-.07-.02-.15-.04-.22-.3-1.6-1.2-3.22-1.99-4.64l-.29-.52c-.4-.73-.85-1.43-1.29-2.11-.74-1.15-1.45-2.24-1.94-3.5-.16-.41-.1-.92.16-1.41.3-.56.83-.98,1.33-1.08l.1-.02c.13-.02.28-.05.43-.12.06-.03.12-.07.18-.1.03-.02.07-.05.11-.06.08-.04.18-.05.29-.06.48-.06.95-.11,1.4-.11.58,0,1.05.09,1.45.28.05.02.13.06.26.07.14,0,.28-.06.37-.18.11-.12.16-.29.13-.45-.04-.27-.26-.44-.33-.5Z"/><path class="cls-1" d="m203.07,17.78c-.19-1.24-.31-2.51-.44-3.74-.09-.95-.19-1.93-.32-2.89-.27-2.1-.55-4.54-.41-6.96.01-.18.04-.38.07-.59.06-.41.13-.83.06-1.25-.06-.35-.3-.58-.65-.62-.01,0-.05,0-.06,0-.1,0-.26.03-.4.18-.56.56-.65,2.8-.61,5.99,0,.36,0,.67,0,.75-.12,1.56-.34,3.15-.54,4.69-.24,1.78-.49,3.63-.6,5.43-.04.58-.12,1.17-.21,1.79-.18,1.24-.36,2.52-.13,3.75.06.32.17.72.48,1.01.22.21.51.31.73.37.42.12.85.18,1.26.18.38,0,.74-.06,1.05-.17.73-.26,1.2-.8,1.38-1.56.35-1.56,0-3.16-.33-4.71-.13-.58-.24-1.13-.33-1.67Z"/><path class="cls-1" d="m245.3,17.92c-.19-1.24-.31-2.51-.44-3.74-.09-.95-.19-1.93-.32-2.9-.27-2.1-.55-4.54-.41-6.96.01-.19.04-.38.07-.59.06-.41.13-.83.06-1.25-.06-.35-.3-.58-.65-.62-.01,0-.05,0-.06,0-.1,0-.26.03-.4.18-.56.56-.65,2.8-.61,5.99,0,.36,0,.68,0,.76-.12,1.56-.34,3.15-.54,4.69-.24,1.78-.49,3.63-.6,5.43-.04.58-.12,1.17-.21,1.79-.18,1.24-.36,2.52-.13,3.75.06.32.17.72.48,1.01.22.21.51.31.73.37.42.12.85.18,1.26.18.38,0,.74-.06,1.05-.17.73-.26,1.2-.8,1.38-1.56.35-1.56,0-3.16-.33-4.71-.13-.58-.24-1.13-.33-1.67Z"/><path class="cls-1" d="m54.95,26.26c1.52-.4,2.54-2,3.17-3.16.22-.4.33-.83.45-1.23.09-.34.18-.66.32-.97.14-.3.32-.58.52-.87.21-.31.42-.64.58-1,.29-.63.39-1.31.5-1.96.02-.15.05-.3.07-.45.17-.98.45-1.97.72-2.92l1.24-4.42c.18-.63.36-1.27.7-1.81.07-.12.16-.23.24-.34.11-.15.22-.31.32-.48.57-.96,1.46-3.11.82-4.35-.38-.73-1.81-1.57-2.47-1.78l-1.2-.39c-.27-.09-.53-.13-.77-.13-.23,0-.44.04-.63.11-.3.12-.55.37-.78.6-.08.08-.16.16-.24.23-.32.27-.68.6-1.02.94-.81.82-1.28,1.57-1.49,2.37-.34,1.33-.58,2.71-.76,4.35,0,.01,0,.02,0,.03,0,.82-.3,1.75-.58,2.65-.11.35-.22.68-.31,1.01-.13.5-.24,1-.33,1.49-.1.52-.21,1.07-.36,1.58-.13.45-.26.82-.42,1.13-.23.46-.39.85-.49,1.38-.26-.15-.41-.65-.5-.98l-.02-.07c-.05-.16-.07-.35-.09-.55-.01-.13-.03-.26-.05-.38-.03-.18-.09-.33-.15-.46-.04-.09-.08-.18-.1-.28-.07-.31-.15-.62-.23-.92-.11-.44-.23-.89-.32-1.33-.05-.25-.12-.48-.19-.71-.05-.17-.1-.34-.14-.51-.07-.31-.14-.63-.21-.94-.11-.49-.22-1-.35-1.5-.04-.15-.09-.3-.14-.44-.06-.15-.11-.29-.14-.43-.03-.14-.07-.28-.11-.42-.08-.32-.16-.62-.19-.93-.02-.22,0-.45,0-.69.01-.27.03-.56,0-.85-.05-.47-.28-.64-.46-.7-.06-.02-.12-.03-.18-.03-.38,0-.64.36-.71.72-.1.55.03,1.08.16,1.59l.06.24c.07.31.13.63.19.94.03.18.07.36.11.55.12.58.27,1.16.45,1.73.26.8.46,1.65.65,2.47.11.47.23.94.35,1.41l.09.34c.12.46.25.94.33,1.41.05.3.05.6.05.91,0,.29,0,.6.05.91.03.25.12.46.19.66.06.15.11.29.14.44.03.15.04.3.04.47,0,.13.01.25.02.38.03.26.09.5.16.73.04.15.08.3.11.45.04.23.12.46.18.67.08.24.15.47.18.7.05.31.04.64.04,1-.01.92-.03,1.97,1.04,2.6.36.21.78.32,1.22.32.23,0,.46-.03.68-.09Z"/><path class="cls-1" d="m114.33,25.2c.26.35.66.57,1.19.65.15.02.31.03.48.03.15,0,.31,0,.48-.03.94-.09,1.53-.4,1.79-.95.16-.34.15-.69.13-1,0-.09-.01-.19,0-.28,0-.18.05-.35.11-.53.03-.09.05-.18.08-.28.18-.74.16-1.5.13-2.24l-.15-4.56c0-.09,0-.19.02-.25.01-.03.04-.07.07-.11.04-.06.09-.13.12-.19.09-.19.1-.38.11-.55v-.09c.02-.19.06-.39.1-.6l.03-.15s0-.04,0-.06c0-.34.07-.73.14-1.11.04-.24.09-.48.12-.72.08-.71.16-1.42.23-2.13.01-.12.03-.25.05-.39.05-.34.12-.73.06-1.06-.02-.09-.03-.16-.05-.23-.03-.15-.04-.19.01-.36.03-.1.07-.23.06-.37,0-.6-.02-1.19-.04-1.79-.01-.49-.03-.98-.04-1.47,0-.11.03-.15.06-.17.14-.12.29-.33.26-.67,0-.04,0-.08,0-.13v-.06c-.02-.33,0-.5.14-.64.09-.08.14-.19.16-.3v-.05c.02-.1.04-.24-.01-.38-.15-.37-.4-.65-.75-.83-.09-.05-.17-.07-.26-.07-.19,0-.36.11-.45.29-.03.06-.06.12-.1.19-.14.28-.31.59-.36.93-.03.2-.03.4-.03.58,0,.22,0,.43-.05.62-.03.11-.07.23-.11.35-.08.21-.16.43-.18.69-.02.24.02.46.05.67.03.16.05.31.05.45,0,.22-.06.45-.12.7-.04.16-.08.32-.11.48-.03.17-.04.35-.05.52-.02.22-.03.43-.08.62-.03.13-.09.25-.16.38-.08.17-.18.35-.22.58-.08.42-.09.85-.09,1.27,0,.17,0,.35,0,.51-.01.33-.07.66-.14,1-.06.34-.13.69-.14,1.06-.04.72.09,1.42.22,2.1l.04.23c.11.6.12,1.18.13,1.79v.26c.02.48.02.96.03,1.45,0,.3,0,.6.01.9,0,.09,0,.18.01.28,0,.07,0,.14.01.2,0,.27.02.53.02.8-.06-.14-.15-.24-.23-.32-.04-.05-.09-.09-.11-.13-.05-.09-.07-.21-.1-.34-.01-.06-.03-.12-.04-.18-.11-.43-.31-.8-.5-1.16-.25-.47-.53-.92-.8-1.36-.37-.6-.75-1.23-1.07-1.89-.45-.95-.87-1.93-1.27-2.88l-.28-.67c-.2-.47-.5-1.07-1.04-1.45-.07-.05-.14-.09-.21-.14-.08-.05-.16-.1-.23-.16-.11-.09-.15-.21-.22-.41-.04-.11-.08-.24-.14-.36-.11-.22-.27-.36-.41-.48-.15-.14-.24-.22-.28-.35-.06-.24-.23-.42-.5-.54-.06-.03-.14-.09-.2-.16-.2-.23-.38-.47-.55-.7-.1-.14-.18-.28-.23-.42-.15-.38-.44-.74-.66-.96-.28-.29-.52-.6-.81-.97-.61-.78-1.25-1.54-1.91-2.27-.38-.42-1.01-.67-1.73-.67-.95,0-2.09.47-2.34,1.5-.06.23-.15.45-.25.68-.17.4-.35.82-.34,1.31,0,.29.02.59.03.88,0,.18.01.36.02.54.02.59.03,1.19.04,1.78v.76s.02.09.02.14c.01.13.08,1.22.09,1.48,0,.86.02,1.72.03,2.58.01,1.43.03,2.87.05,4.3,0,.16,0,.33-.04.46-.02.05-.04.09-.06.13-.03.06-.06.12-.09.19-.1.27-.09.56-.08.78l.1,2.36c0,.1,0,.2-.02.27-.01.04-.05.08-.08.13-.05.06-.09.13-.13.2-.14.28-.12.58-.1.82v.05c.04.52.01,1.05-.09,1.59-.03.16-.07.36-.01.56.08.29.33.49.6.49.03,0,.06,0,.09,0,.4-.07.54-.49.48-.86-.04-.25.04-.49.13-.77.09-.26.18-.55.19-.88,0-.27-.02-.53-.04-.78-.02-.21-.03-.42-.04-.62,0-.16,0-.34.06-.5.02-.07.05-.13.08-.19.03-.06.06-.13.09-.19.19-.48.15-1.01.12-1.44-.01-.16-.03-.33-.05-.49-.04-.31-.08-.61-.06-.89.01-.19.08-.38.14-.58.06-.19.13-.39.16-.61.06-.44.1-.88.14-1.3.06-.64.11-1.24.23-1.85.22-1.06.54-2.11.95-3.11.06-.13.12-.27.18-.41.22-.48.44-.99.5-1.52.01-.11,0-.25-.02-.43-.01-.1-.03-.27-.03-.41h.02c.33.29.41.71.49,1.2.04.24.09.5.17.75.13.4.4.72.66,1.02.14.16.27.32.37.47.39.6.72,1.23,1.01,1.89.21.49.37.99.54,1.53.19.6.39,1.23.67,1.83.25.53.57,1.03.88,1.51.17.26.34.52.49.78.13.22.25.44.38.65.25.44.51.89.79,1.33.15.24.26.5.38.78.1.24.2.48.34.72.25.44.63.77.97,1.06.24.2.5.42.82.6l.13.07c.22.12.4.22.53.39.04.06.07.12.11.18.05.08.09.17.15.25Zm2.98-3.55s0-.03.01-.04c0,.13,0,.26.01.39l-.05-.1s0-.13.03-.25Z"/><path class="cls-1" d="m88.74,20.95c-.36-.11-.73-.16-1.1-.16-.13,0-.27,0-.4.02l-.15.02c-.12.01-.23.03-.33.03-.08,0-.14,0-.2-.02-.07-.02-.15-.06-.23-.11-.06-.03-.11-.06-.17-.09-.25-.11-.52-.12-.76-.12h-.2c-.07,0-.14,0-.2,0-.12,0-.25-.02-.37-.03-.28-.03-.55-.05-.83-.06-.05,0-.1,0-.16,0-.32,0-.63.04-.93.07-.3.03-.58.07-.86.07-.05,0-.1,0-.15,0-.86-.04-1.64-.5-2.4-1.41-.07-.08-.13-.17-.19-.25-.25-.38-.38-.79-.53-1.29-.2-.67-.46-1.32-.7-1.95l-.03-.07c-.44-1.12-.82-2.43-.31-3.67.04-.11.08-.22.13-.35v-.04c.04-.07.07-.16.09-.17,0,0,.01,0,.04-.01.13-.02.28-.03.47-.03.11,0,.21,0,.32,0,.11,0,.22,0,.33,0h.09c.34,0,.57-.13.78-.24.1-.05.19-.1.3-.14.06-.02.16-.04.27-.06.43-.09,1.23-.25,1.13-.96-.05-.35-.25-.56-.6-.62-.05,0-.11-.01-.17-.01h0c-.12,0-.24,0-.35,0-.12,0-.24,0-.35,0-.05,0-.1,0-.15,0-.05,0-.11,0-.16,0-.1,0-.19-.01-.29-.01-.16,0-.39.01-.63.11-.11.05-.2.11-.28.17-.05.03-.1.07-.15.1-.06.03-.15.04-.24.05h-.09c-.15.04-.28.09-.4.15,0-.01,0-.03,0-.04-.01-.22-.02-.42,0-.61.01-.09.07-.18.13-.29.08-.14.17-.3.2-.51.03-.17.01-.33,0-.47,0-.06,0-.12-.01-.18,0-.5.12-1,.26-1.53.14-.54.28-1.09.28-1.67v-.1c0-.15,0-.2.03-.24.16-.16.27-.23.42-.23,0,0,.25,0,.37,0,.22,0,.44,0,.67,0h.33c.15,0,.3,0,.45-.02.59-.03,1.18-.06,1.76-.09.23-.01.46-.03.7-.06.29-.03.51-.15.67-.36h.01c.09,0,.18.02.27.02.21,0,.41-.06.62-.18.1-.06.21-.11.31-.16.06-.03.11-.05.17-.08l.23-.11c.19-.09.38-.18.57-.28.35-.18.49-.5.39-.89-.08-.32-.32-.54-.66-.59-.14-.02-.29-.03-.46-.03-.05,0-.1,0-.15,0-.21,0-.42,0-.64,0h-.94c-1.68,0-3.55.1-4.79,1.25.03-.24-.04-.44-.18-.57-.07-.07-.17-.1-.26-.1-.31,0-.6,0-1.31,3.85l-.02.09c-.3,1.59-.54,2.92-.75,4.26-.55,3.45-.77,6.1-.73,8.6.01.57.2,1.13.38,1.68.07.22.15.43.2.64.05.17.07.34.1.52.06.37.12.76.38,1.15.24.36.55.67.85.96l.19.18c.56.56,1.17,1.07,1.82,1.53l.17.12c.81.57,1.72,1.21,2.74,1.32.14.01.29.02.45.02.41,0,.83-.05,1.22-.1.34-.04.67-.08.99-.09h.34c.76-.03,1.55-.04,2.3-.35.65-.26,1.17-.74,1.64-1.48.39-.62.77-1.37.67-2.26-.04-.34-.14-.61-.31-.83-.21-.27-.52-.47-.97-.61Z"/><path class="cls-1" d="m38.16,20.95c-.36-.11-.73-.16-1.1-.16-.13,0-.27,0-.4.02l-.15.02c-.12.01-.23.03-.33.03-.08,0-.14,0-.2-.02-.07-.02-.15-.06-.23-.11-.06-.03-.11-.06-.17-.09-.25-.11-.52-.12-.76-.12h-.2c-.07,0-.14,0-.2,0-.12,0-.25-.02-.37-.03-.28-.03-.55-.05-.83-.06-.05,0-.1,0-.16,0-.32,0-.63.04-.93.07-.3.03-.58.07-.86.07-.05,0-.1,0-.15,0-.86-.04-1.64-.5-2.4-1.41-.07-.08-.13-.17-.19-.25-.25-.38-.38-.79-.53-1.29-.2-.67-.46-1.32-.7-1.95l-.03-.07c-.44-1.12-.82-2.43-.31-3.67.04-.11.08-.22.13-.35v-.04c.04-.07.07-.16.09-.17,0,0,.01,0,.04-.01.13-.02.28-.03.47-.03.11,0,.21,0,.32,0,.11,0,.22,0,.33,0h.09c.34,0,.57-.13.78-.24.1-.05.19-.1.3-.14.06-.02.16-.04.27-.06.43-.09,1.23-.25,1.13-.96-.05-.35-.25-.56-.6-.62-.05,0-.11-.01-.17-.01h0c-.12,0-.24,0-.35,0-.12,0-.24,0-.35,0-.05,0-.1,0-.15,0-.05,0-.11,0-.16,0-.1,0-.19-.01-.29-.01-.16,0-.39.01-.63.11-.11.05-.2.11-.28.17-.05.03-.1.07-.15.1-.06.03-.15.04-.24.05h-.09c-.15.04-.28.09-.4.15,0-.01,0-.03,0-.04-.01-.22-.02-.42,0-.61.01-.09.07-.18.13-.29.08-.14.17-.3.2-.51.03-.17.01-.33,0-.47,0-.06,0-.12-.01-.18,0-.5.12-1,.26-1.53.14-.54.28-1.09.28-1.67v-.1c0-.15,0-.2.03-.24.16-.16.27-.23.42-.23,0,0,.25,0,.37,0,.22,0,.44,0,.67,0h.33c.15,0,.3,0,.45-.02.59-.03,1.18-.06,1.76-.09.23-.01.46-.03.7-.06.29-.03.51-.15.67-.36h.01c.09,0,.18.02.27.02.21,0,.41-.06.62-.18.1-.06.21-.11.31-.16.06-.03.11-.05.17-.08l.23-.11c.19-.09.38-.18.57-.28.35-.18.49-.5.39-.89-.08-.32-.32-.54-.66-.59-.14-.02-.29-.03-.46-.03-.05,0-.1,0-.15,0-.21,0-.42,0-.64,0h-.94c-1.68,0-3.55.1-4.79,1.25.03-.24-.04-.44-.18-.57-.07-.07-.17-.1-.26-.1-.31,0-.6,0-1.31,3.85l-.02.09c-.3,1.59-.54,2.92-.75,4.26-.55,3.45-.77,6.1-.73,8.6.01.57.2,1.13.38,1.68.07.22.15.43.2.64.05.17.07.34.1.52.06.37.12.76.38,1.15.24.36.55.67.85.96l.19.18c.56.56,1.17,1.07,1.82,1.53l.17.12c.81.57,1.72,1.21,2.74,1.32.14.01.29.02.45.02.41,0,.83-.05,1.22-.1.34-.04.67-.08.99-.09h.34c.76-.03,1.55-.04,2.3-.35.65-.26,1.17-.74,1.64-1.48.39-.62.77-1.37.67-2.26-.04-.34-.14-.61-.31-.83-.21-.27-.52-.47-.97-.61Z"/><path class="cls-1" d="m12.29,17.26c.01-.45-.02-.9-.05-1.33-.03-.45-.06-.87-.05-1.29.03-.88-.04-1.89-.21-3.09-.06-.4-.12-.8-.18-1.19-.18-1.16-.37-2.36-.42-3.55-.05-1.21-.05-2.48.58-3.48.74-1.16,2.09-1.54,3.31-1.75h.07c.08-.02.16-.04.24-.06.28-.08.43-.28.44-.56,0-.13-.02-.25-.05-.37-.06-.22-.25-.37-.49-.39-.04,0-.09,0-.13,0-.03,0-.05,0-.08,0-.55.05-1.1.15-1.63.31-1.74.5-3.08,1.93-3.6,3.81-.27.98-.36,1.99-.46,2.96-.04.38-.07.77-.12,1.15v.04c-.21,1.67-.41,3.35-.61,5.02-.03.27-.06.53-.09.8-.13,1.31-.26,2.55-.97,3.64-.03.04-.06.08-.08.12-.73,1.04-2.14,2.25-3.72,2.25-.41,0-.81-.09-1.18-.26l-.1-.05c-.21-.1-.46-.22-.74-.22-.05,0-.1,0-.15.01C.42,20.02-.05,22.45,0,23.33c.18,2.66,3.49,3.21,4.9,3.33.13.01.25.02.37.02,1.81,0,3.3-1.06,4.23-1.95.98-.93,1.68-2.18,2.21-3.94.34-1.14.54-2.33.57-3.53Z"/></g></svg>